<svg width="27" height="24" viewBox="0 0 27 24" fill="none" xmlns="http://www.w3.org/2000/svg">
<path d="M23.4449 3.05681C22.8703 2.47613 22.1881 2.0155 21.4372 1.70122C20.6863 1.38695 19.8814 1.22519 19.0686 1.22519C18.2558 1.22519 17.451 1.38695 16.7001 1.70122C15.9492 2.0155 15.267 2.47613 14.6924 3.05681L13.4999 4.26135L12.3074 3.05681C11.1467 1.88443 9.57255 1.2258 7.93114 1.2258C6.28973 1.2258 4.71554 1.88443 3.55489 3.05681C2.39424 4.22919 1.74219 5.81927 1.74219 7.47726C1.74219 9.13525 2.39424 10.7253 3.55489 11.8977L4.74739 13.1023L13.4999 21.9432L22.2524 13.1023L23.4449 11.8977C24.0198 11.3173 24.4758 10.6282 24.7869 9.86971C25.0981 9.11124 25.2582 8.29827 25.2582 7.47726C25.2582 6.65625 25.0981 5.84329 24.7869 5.08481C24.4758 4.32634 24.0198 3.63721 23.4449 3.05681V3.05681Z" stroke="#222222" stroke-width="2" stroke-linecap="round" stroke-linejoin="round"/>
</svg>
